<?xml version="1.0" encoding="utf-8"?>
<!-- Generator: Adobe Illustrator 18.1.0, SVG Export Plug-In . SVG Version: 6.00 Build 0)  -->
<svg version="1.1" id="Layer_1" xmlns="http://www.w3.org/2000/svg" xmlns:xlink="http://www.w3.org/1999/xlink" x="0px" y="0px"
	 width="580px" height="650px" viewBox="0 0 580 650" enable-background="new 0 0 580 650" xml:space="preserve">
<g>
	<g>
		<path fill="#8E8C7E" d="M287.7,3c-19.2,11.1-38.4,22.3-57.7,33.4C191,59,152,81.6,113,104.2c-30.3,17.6-60.7,35.1-91,52.7
			c-3.2,1.9-10.9,4.5-11.5,8.6c-0.3,2.5,0,5.4,0,7.9c0,5.5,0,10.9,0,16.4c0,39.4,0,78.8,0,118.2c0,43.3,0,86.6,0,129.9
			c0,13,0,26,0,38.9c0,4.3-1.2,8.7,2.8,11.1c23.7,14.2,47.9,27.7,71.8,41.6c39.6,22.9,79.1,45.8,118.7,68.8
			c26.6,15.4,53.3,30.9,79.9,46.3c1.4,0.8,2.7,1.6,4.1,2.4c2.8,1.6,5.3-2.7,2.5-4.3c-31.1-18-62.2-36.1-93.4-54.1
			c-49.6-28.7-99.1-57.4-148.7-86.2c-11.3-6.6-22.7-13.1-34-19.7c0.4,0.7,0.8,1.4,1.2,2.2c0-36.3,0-72.5,0-108.8
			c0-57.3,0-114.6,0-171.9c0-13.1,0-26.1,0-39.2c-0.4,0.7-0.8,1.4-1.2,2.2c31.1-18,62.2-36.1,93.4-54.1
			c49.6-28.7,99.1-57.4,148.7-86.2c11.3-6.6,22.7-13.1,34-19.7C293,5.7,290.5,1.3,287.7,3L287.7,3z"/>
		<path fill="#8E8C7E" d="M287.7,7.3c31.3,18,62.6,36,93.9,54c49.9,28.7,99.8,57.4,149.7,86.1c11.5,6.6,22.9,13.2,34.4,19.8
			c-0.4-0.7-0.8-1.4-1.2-2.2c0,36.3,0,72.5,0,108.8c0,57.3,0,114.6,0,171.9c0,13.1,0,26.1,0,39.2c0.4-0.7,0.8-1.4,1.2-2.2
			c-31.3,18-62.6,36-93.9,54c-49.9,28.7-99.8,57.4-149.7,86.1c-11.5,6.6-22.9,13.2-34.4,19.8c-2.8,1.6-0.3,5.9,2.5,4.3
			c31.3-18,62.6-36,93.9-54c49.9-28.7,99.8-57.4,149.7-86.1c11.5-6.6,22.9-13.2,34.4-19.8c0.8-0.4,1.2-1.3,1.2-2.2
			c0-36.3,0-72.5,0-108.8c0-57.3,0-114.6,0-171.9c0-13.1,0-26.1,0-39.2c0-0.9-0.5-1.7-1.2-2.2c-31.3-18-62.6-36-93.9-54
			c-49.9-28.7-99.8-57.4-149.7-86.1C313.2,16.2,301.7,9.6,290.3,3C287.5,1.4,284.9,5.7,287.7,7.3L287.7,7.3z"/>
		<path fill="#8E8C7E" d="M213.2,197.2c-44.8,0-89.6,0-134.4,0c-6.4,0-12.8,0-19.2,0c-1.4,0-2.5,1.1-2.5,2.5c0,25.8,0,51.5,0,77.3
			c0,40.9,0,81.7,0,122.6c0,9.4,0,18.9,0,28.3c0,1.4,1.1,2.5,2.5,2.5c44.8,0,89.6,0,134.4,0c6.4,0,12.8,0,19.2,0
			c1.4,0,2.5-1.1,2.5-2.5c0-25.8,0-51.5,0-77.3c0-40.9,0-81.7,0-122.6c0-9.4,0-18.9,0-28.3c0-3.2-5-3.2-5,0c0,25.8,0,51.5,0,77.3
			c0,40.9,0,81.7,0,122.6c0,9.4,0,18.9,0,28.3c0.8-0.8,1.7-1.7,2.5-2.5c-44.8,0-89.6,0-134.4,0c-6.4,0-12.8,0-19.2,0
			c0.8,0.8,1.7,1.7,2.5,2.5c0-25.8,0-51.5,0-77.3c0-40.9,0-81.7,0-122.6c0-9.4,0-18.9,0-28.3c-0.8,0.8-1.7,1.7-2.5,2.5
			c44.8,0,89.6,0,134.4,0c6.4,0,12.8,0,19.2,0C216.4,202.2,216.4,197.2,213.2,197.2z"/>
		<path fill="#8E8C7E" d="M203.3,209.4c-38.9,0-77.7,0-116.6,0c-5.5,0-11,0-16.5,0c-1.4,0-2.5,1.1-2.5,2.5c0,22.7,0,45.5,0,68.2
			c0,36.3,0,72.6,0,108.9c0,8.4,0,16.8,0,25.1c0,1.4,1.1,2.5,2.5,2.5c38.9,0,77.7,0,116.6,0c5.5,0,11,0,16.5,0
			c1.4,0,2.5-1.1,2.5-2.5c0-22.7,0-45.5,0-68.2c0-36.3,0-72.6,0-108.9c0-8.4,0-16.8,0-25.1c0-3.2-5-3.2-5,0c0,22.7,0,45.5,0,68.2
			c0,36.3,0,72.6,0,108.9c0,8.4,0,16.8,0,25.1c0.8-0.8,1.7-1.7,2.5-2.5c-38.9,0-77.7,0-116.6,0c-5.5,0-11,0-16.5,0
			c0.8,0.8,1.7,1.7,2.5,2.5c0-22.7,0-45.5,0-68.2c0-36.3,0-72.6,0-108.9c0-8.4,0-16.8,0-25.1c-0.8,0.8-1.7,1.7-2.5,2.5
			c38.9,0,77.7,0,116.6,0c5.5,0,11,0,16.5,0C206.5,214.4,206.5,209.4,203.3,209.4z"/>
		<path fill="#8E8C7E" d="M499.7,130.1c-35,0-70.1,0-105.1,0c-55.8,0-111.5,0-167.3,0c-12.7,0-25.4,0-38.1,0c-1.4,0-2.5,1.1-2.5,2.5
			c0,24.7,0,49.4,0,74.1c0,39.2,0,78.4,0,117.6c0,9.1,0,18.1,0,27.2c0,1.4,1.1,2.5,2.5,2.5c35,0,70.1,0,105.1,0
			c55.8,0,111.5,0,167.3,0c12.7,0,25.4,0,38.1,0c1.4,0,2.5-1.1,2.5-2.5c0-24.7,0-49.4,0-74.1c0-39.2,0-78.4,0-117.6
			c0-9.1,0-18.1,0-27.2c0-3.2-5-3.2-5,0c0,24.7,0,49.4,0,74.1c0,39.2,0,78.4,0,117.6c0,9.1,0,18.1,0,27.2c0.8-0.8,1.7-1.7,2.5-2.5
			c-35,0-70.1,0-105.1,0c-55.8,0-111.5,0-167.3,0c-12.7,0-25.4,0-38.1,0c0.8,0.8,1.7,1.7,2.5,2.5c0-24.7,0-49.4,0-74.1
			c0-39.2,0-78.4,0-117.6c0-9.1,0-18.1,0-27.2c-0.8,0.8-1.7,1.7-2.5,2.5c35,0,70.1,0,105.1,0c55.8,0,111.5,0,167.3,0
			c12.7,0,25.4,0,38.1,0C502.9,135.1,502.9,130.1,499.7,130.1z"/>
		<path fill="#8E8C7E" d="M487.4,141.5c-32.1,0-64.3,0-96.4,0c-50.8,0-101.7,0-152.5,0c-11.7,0-23.5,0-35.2,0
			c-1.4,0-2.5,1.1-2.5,2.5c0,22,0,44.1,0,66.1c0,35.2,0,70.3,0,105.5c0,8.1,0,16.2,0,24.4c0,1.4,1.1,2.5,2.5,2.5
			c32.1,0,64.3,0,96.4,0c50.8,0,101.7,0,152.5,0c11.7,0,23.5,0,35.2,0c1.4,0,2.5-1.1,2.5-2.5c0-22,0-44.1,0-66.1
			c0-35.2,0-70.3,0-105.5c0-8.1,0-16.2,0-24.4c0-3.2-5-3.2-5,0c0,22,0,44.1,0,66.1c0,35.2,0,70.3,0,105.5c0,8.1,0,16.2,0,24.4
			c0.8-0.8,1.7-1.7,2.5-2.5c-32.1,0-64.3,0-96.4,0c-50.8,0-101.7,0-152.5,0c-11.7,0-23.5,0-35.2,0c0.8,0.8,1.7,1.7,2.5,2.5
			c0-22,0-44.1,0-66.1c0-35.2,0-70.3,0-105.5c0-8.1,0-16.2,0-24.4c-0.8,0.8-1.7,1.7-2.5,2.5c32.1,0,64.3,0,96.4,0
			c50.8,0,101.7,0,152.5,0c11.7,0,23.5,0,35.2,0C490.6,146.5,490.6,141.5,487.4,141.5z"/>
		<path fill="#8E8C7E" d="M355.7,349.1c-7,0-14,0-21,0c-1.4,0-2.5,1.1-2.5,2.5c0,13.8,0,27.6,0,41.3c0,1.4,1.1,2.5,2.5,2.5
			c7,0,14,0,21,0c1.4,0,2.5-1.1,2.5-2.5c0-13.8,0-27.6,0-41.3c0-3.2-5-3.2-5,0c0,13.8,0,27.6,0,41.3c0.8-0.8,1.7-1.7,2.5-2.5
			c-7,0-14,0-21,0c0.8,0.8,1.7,1.7,2.5,2.5c0-13.8,0-27.6,0-41.3c-0.8,0.8-1.7,1.7-2.5,2.5c7,0,14,0,21,0
			C358.9,354.1,358.9,349.1,355.7,349.1z"/>
		<path fill="#8E8C7E" d="M452.7,389.5c-24.1,0-48.2,0-72.3,0c-38.5,0-77,0-115.5,0c-8.9,0-17.8,0-26.7,0c-1.4,0-2.5,1.1-2.5,2.5
			c0,11.6,0,23.3,0,34.9c0,1.4,1.1,2.5,2.5,2.5c24.1,0,48.2,0,72.3,0c38.5,0,77,0,115.5,0c8.9,0,17.8,0,26.7,0
			c1.4,0,2.5-1.1,2.5-2.5c0-11.6,0-23.3,0-34.9c0-3.2-5-3.2-5,0c0,11.6,0,23.3,0,34.9c0.8-0.8,1.7-1.7,2.5-2.5
			c-24.1,0-48.2,0-72.3,0c-38.5,0-77,0-115.5,0c-8.9,0-17.8,0-26.7,0c0.8,0.8,1.7,1.7,2.5,2.5c0-11.6,0-23.3,0-34.9
			c-0.8,0.8-1.7,1.7-2.5,2.5c24.1,0,48.2,0,72.3,0c38.5,0,77,0,115.5,0c8.9,0,17.8,0,26.7,0C455.9,394.5,455.9,389.5,452.7,389.5z"
			/>
		<path fill="#8E8C7E" d="M392.5,394.1c-27.7,27.7-55.4,55.4-83.1,83.1c-3.9,3.9-7.8,7.8-11.6,11.6c-1,1-1,2.6,0,3.5
			c15.2,15.2,30.4,30.4,45.6,45.6c1,1,2.6,1,3.5,0c27.7-27.7,55.4-55.4,83.1-83.1c3.9-3.9,7.8-7.8,11.6-11.6c1-1,1-2.6,0-3.5
			c-15.2-15.2-30.4-30.4-45.6-45.6c-2.3-2.3-5.8,1.3-3.5,3.5c15.2,15.2,30.4,30.4,45.6,45.6c0-1.2,0-2.4,0-3.5
			c-27.7,27.7-55.4,55.4-83.1,83.1c-3.9,3.9-7.8,7.8-11.6,11.6c1.2,0,2.4,0,3.5,0c-15.2-15.2-30.4-30.4-45.6-45.6c0,1.2,0,2.4,0,3.5
			c27.7-27.7,55.4-55.4,83.1-83.1c3.9-3.9,7.8-7.8,11.6-11.6C398.3,395.3,394.8,391.8,392.5,394.1z"/>
		<path fill="#8E8C7E" d="M390.3,406.9c-20.9,20.9-41.8,41.8-62.6,62.6c-3,3-5.9,5.9-8.9,8.9c-1,1-1,2.6,0,3.5
			c11.7,11.7,23.4,23.4,35.2,35.2c1,1,2.6,1,3.5,0c20.9-20.9,41.8-41.8,62.6-62.6c3-3,5.9-5.9,8.9-8.9c1-1,1-2.6,0-3.5
			c-11.7-11.7-23.4-23.4-35.2-35.2c-2.3-2.3-5.8,1.3-3.5,3.5c11.7,11.7,23.4,23.4,35.2,35.2c0-1.2,0-2.4,0-3.5
			c-20.9,20.9-41.8,41.8-62.6,62.6c-3,3-5.9,5.9-8.9,8.9c1.2,0,2.4,0,3.5,0c-11.7-11.7-23.4-23.4-35.2-35.2c0,1.2,0,2.4,0,3.5
			c20.9-20.9,41.8-41.8,62.6-62.6c3-3,5.9-5.9,8.9-8.9C396.1,408.1,392.5,404.6,390.3,406.9z"/>
		<path fill="#8E8C7E" d="M236.7,488.9c5.1-4.3,7.6-11.2,6.1-17.8c-0.3-1.4-2.7-6.1,0-6.6c2-0.4,3.5,4.3,3.6,5.6
			c0.4,5.2-4.8,9-8.6,11.6c-2.9,2-4.7,2.2-8.4,2.3c-1.4,0-2.6,0.1-4,0.6c-3.2,1.3-5.4,4.1-7.3,6.9c-5.8,8.3-11.8,16.1-19,23.1
			c1-0.1,2-0.3,3-0.4c-8.2-5.6-9.5-16.3-10-25.5c-0.1-2.3-0.7-5.4,0.7-7.4c1.1-1.7,3.3-2.6,5-3.5c3.1-1.6,5.7-3.2,7.6-6.2
			c0.6-1,0.3-2.2-0.4-3c-2.8-3.2-7.1-7-11.7-5.7c-4.8,1.4-5.3,6.7-5.8,11c-0.8,7.6-0.7,15.3,0.2,22.9c0.9,7.5,4.2,15.4,2.3,22.9
			c-1.8,7.2-5.1,14.3-7.7,21.1c-1.4,3.6-3.4,5.1-6.3,7.4c-1.5,1.2-2.6,2.7-3,4.6c-0.7,3.5,1,6.4-2.6,8.9c-1.9,1.3-4,1.7-5.5,3.6
			c-2.5,3.1-2.5,6.8,0.7,9.3c2.6,2,5-2.4,2.5-4.3c-1.2-0.9,7.4-5.9,8.2-6.8c3.1-3.7,0.1-8.6,3.7-12c2.8-2.6,4.9-3.9,6.5-7.7
			c2.2-5.2,4-10.6,6-15.9c1.8-4.8,3.5-9.5,3.2-14.7c-0.3-5.1-2-10.1-2.7-15.2c-0.9-6.1-1.2-12.4-0.8-18.5c0.1-2.4-0.3-6.9,0.9-8.9
			c2.8-4.6,6.1-1.1,8.5,1.7c-0.1-1-0.3-2-0.4-3c-2.6,4.1-8.3,4.7-11.6,8.3c-3.4,3.9-2.6,9.4-2.2,14.2c0.9,10.3,3.3,20.8,12.3,26.9
			c0.9,0.6,2.3,0.3,3-0.4c4.5-4.4,8.7-9.1,12.6-14.1c1.9-2.4,3.7-4.9,5.4-7.5c1.6-2.3,3.2-5.6,5.8-7c2.7-1.4,6.2,0.2,9.1-0.8
			c2.4-0.9,4.6-2.6,6.7-4.1c3.8-2.8,7.5-6.3,8.8-11c1.6-5.8-3.1-16.8-10.7-14.1c-3.7,1.3-4.5,5.8-3.6,9.1c1.9,6.4,1.9,11.9-3.6,16.6
			C230.7,487.5,234.3,491,236.7,488.9L236.7,488.9z"/>
		<path fill="#8E8C7E" d="M190.9,481.2c2.9-1.4,5.8-2.7,8.6-4.2c2.3-1.3,3.4-4.5,4.7-6.6c0.7-1.2,0.2-2.7-0.9-3.4
			c-1.8-1.2-3.6-2.5-5.4-3.5c-1.9-1-4.1,0-6.1,0.5c-0.8,0.2-1.6,0.9-1.7,1.7c-0.9,4.3-1.8,8.5-2.8,12.8c-0.7,3.1,4.1,4.5,4.8,1.3
			c0.9-4.3,1.8-8.5,2.8-12.8c-0.6,0.6-1.2,1.2-1.7,1.7c1.3-0.3,2.6-0.6,3.9-0.9c-0.6-0.1-1.3-0.2-1.9-0.3c1.9,1.2,3.8,2.5,5.7,3.7
			c-0.3-1.1-0.6-2.3-0.9-3.4c-0.7,1.3-1.5,2.6-2.2,3.8c0,0-1,1.5-0.9,1.6c-0.2-0.2,1.7-1.2-0.2-0.3c-2.7,1.3-5.5,2.7-8.2,4
			C185.4,478.3,188,482.6,190.9,481.2z"/>
		<path fill="#8E8C7E" d="M245.7,482.1c3.1-3.9,7-8,5.1-13.2c-0.7-1.9-1.2-5.1-2.6-6.6c-1.4-1.4-4.4-2-6.2-2.7
			c-0.8-0.3-1.9,0.1-2.4,0.6c-1.2,1.3-2.7,2.4-2.9,4.2c-0.2,1.4,0,2.9,0,4.3c0.2,3.8,0.5,7.7,0.7,11.5c0.1,1.3,1.1,2.5,2.5,2.5
			c1.4,0,2.7,0,4.1,0c3.2,0,3.2-5,0-5c-1.4,0-2.7,0-4.1,0c0.8,0.8,1.7,1.7,2.5,2.5c-0.2-3.6-0.4-7.1-0.6-10.7
			c-0.1-1.1-0.1-2.1-0.1-3.2c0-0.4,0.2-1.2,0-1.6c-0.3-0.8-0.5,0.9-0.5,0.9c0.5-0.1,1.5-1.6,1.9-2c-0.8,0.2-1.6,0.4-2.4,0.6
			c1.7,0.7,3.4,1.4,5.1,2c-0.6-0.6-1.2-1.2-1.7-1.7c0.8,2.2,2.3,4.8,2.6,7c-0.1-0.8-0.4,1-0.6,1.6c-0.3,0.6-0.8,1.2-1.2,1.7
			c-0.8,1.2-1.7,2.3-2.6,3.5C240.2,481,243.7,484.6,245.7,482.1z"/>
	</g>
</g>
</svg>
