<?xml version="1.0" encoding="utf-8"?>
<!-- Generator: Adobe Illustrator 18.1.0, SVG Export Plug-In . SVG Version: 6.00 Build 0)  -->
<svg version="1.1" id="Layer_1" xmlns="http://www.w3.org/2000/svg" xmlns:xlink="http://www.w3.org/1999/xlink" x="0px" y="0px"
	 width="580px" height="650px" viewBox="0 0 580 650" enable-background="new 0 0 580 650" xml:space="preserve">
<g>
	<g>
		<path fill="#8E8C7E" d="M566.3,482.2c-31.4,18.1-62.8,36.3-94.2,54.4c-49.6,28.6-99.2,57.3-148.9,85.9
			c-11.3,6.5-22.6,13.1-34,19.6c0.8,0,1.7,0,2.5,0c-31.4-18.1-62.8-36.3-94.2-54.4c-49.6-28.6-99.2-57.3-148.9-85.9
			c-11.3-6.5-22.6-13.1-34-19.6c0.4,0.7,0.8,1.4,1.2,2.2c0-36.3,0-72.5,0-108.8c0-57.3,0-114.6,0-171.9c0-13.1,0-26.1,0-39.2
			c-0.4,0.7-0.8,1.4-1.2,2.2c31.4-18.1,62.8-36.3,94.2-54.4c49.6-28.6,99.2-57.3,148.9-85.9c11.3-6.5,22.6-13.1,34-19.6
			c-0.8,0-1.7,0-2.5,0c31.4,18.1,62.8,36.3,94.2,54.4c49.6,28.6,99.2,57.3,148.9,85.9c11.3,6.5,22.6,13.1,34,19.6
			c-0.4-0.7-0.8-1.4-1.2-2.2c0,36.3,0,72.5,0,108.8c0,57.3,0,114.6,0,171.9c0,13.1,0,26.1,0,39.2c0,3.2,5,3.2,5,0
			c0-36.3,0-72.5,0-108.8c0-57.3,0-114.6,0-171.9c0-13.1,0-26.1,0-39.2c0-0.9-0.5-1.7-1.2-2.2c-31.4-18.1-62.8-36.3-94.2-54.4
			C425.1,79.3,375.4,50.6,325.8,22c-11.3-6.5-22.6-13.1-34-19.6c-0.8-0.4-1.7-0.4-2.5,0c-31.4,18.1-62.8,36.3-94.2,54.4
			c-49.6,28.6-99.2,57.3-148.9,85.9c-11.3,6.5-22.6,13.1-34,19.6c-0.8,0.4-1.2,1.3-1.2,2.2c0,36.6,0,73.2,0,109.7
			c0,57.4,0,114.9,0,172.3c0,8.6,0,17.2,0,25.8c0,3.7-0.6,8,0,11.7c0.4,2.7,3,3.5,5.2,4.8c5.7,3.3,11.4,6.6,17,9.8
			c47.5,27.4,95,54.8,142.5,82.3c37.2,21.5,74.5,43,111.7,64.5c0.6,0.4,1.2,0.7,1.8,1.1c0.8,0.4,1.7,0.4,2.5,0
			c31.4-18.1,62.8-36.3,94.2-54.4c49.6-28.6,99.2-57.3,148.9-85.9c11.3-6.5,22.6-13.1,34-19.6C571.7,484.9,569.1,480.6,566.3,482.2z
			"/>
		<path fill="#8E8C7E" d="M409.8,298.2c-22.3,33.6-44.5,67.3-66.8,100.9c-5.9,9-11.8,17.9-17.8,26.9c-1.1,1.6,0.3,3.8,2.2,3.8
			c15.4,0,30.9,0,46.3,0c10.4,0,20.8,0,31.3,0c3.3,0,6.5,0,9.8,0c1.3,0,3.3,0.3,4.5-0.3c1.9-1,3.4-4.4,4.6-6
			c3.1-4.3,6.1-8.5,9.2-12.8c2.8-3.9,5.6-7.8,8.4-11.7c1.1-1.6,2-2.4,1.8-4.4c-0.6-5.1-3.2-10.7-4.7-15.6c-3-10.1-6.1-20.1-9.1-30.2
			c-5-16.6-10-33.3-15-49.9c-0.9-3.1-5.8-1.8-4.8,1.3c5.4,18.1,10.9,36.1,16.3,54.2c3.3,10.9,6.5,21.7,9.8,32.6
			c0.7,2.4,1.1,6.4,2.6,8.5c1.4,1.9-2.2-1.8,0.4-1c-0.2-0.1-2.5,3.5-2.8,3.8c-6.6,9.3-13.3,18.6-19.9,27.9c0.7-0.4,1.4-0.8,2.2-1.2
			c-26.5,0-52.9,0-79.4,0c-3.8,0-7.5,0-11.3,0c0.7,1.3,1.4,2.5,2.2,3.8c23.9-36.2,47.8-72.3,71.7-108.5c4.3-6.4,8.5-12.9,12.8-19.3
			C415.9,298.1,411.6,295.5,409.8,298.2z"/>
		<path fill="#8E8C7E" d="M413.2,297.3c-16.6-12.2-33.2-24.4-49.8-36.6c-34-25-67.9-49.9-101.9-74.9c-27.6-20.3-55.2-40.6-82.8-60.9
			c-3.1-2.3-6.2-4.6-9.4-6.9c-1.6-1.1-2.7-2.4-4.7-2.3c-2.2,0.1-4.8,1.3-6.9,2c-5.5,1.8-10.9,3.9-16.3,6.3
			c-37.1,16.7-67.2,47.6-75.4,88.4c-1.3,6.5-2.1,13.2-2.4,19.8c-0.2,3.6-0.2,7.2-0.1,10.8c0.1,2.4-0.3,4.6,1.4,6.4
			c1,1.1,2.7,1.9,3.9,2.7c8.8,6.1,17.6,12.1,26.4,18.2c32.2,22.2,64.4,44.4,96.5,66.6c32.9,22.7,65.9,45.4,98.8,68.2
			c9.7,6.7,19.4,13.4,29.1,20.1c1.9,1.3,3.8,3,5.9,4c1.8,0.9,3.7,0.6,5.7,0.6c36.4,0,72.8,0,109.2,0c3.3,0,6.5,0,9.8,0
			c1.6,0,2.9-1.6,2.4-3.2c-11.3-37.4-22.5-74.7-33.8-112.1c-1.6-5.2-3.1-10.5-4.7-15.7c-0.9-3.1-5.8-1.8-4.8,1.3
			c11.3,37.4,22.5,74.7,33.8,112.1c1.6,5.2,3.1,10.5,4.7,15.7c0.8-1.1,1.6-2.1,2.4-3.2c-32,0-64,0-96,0c-7.1,0-14.2,0-21.3,0
			c-1.5,0-3.5-0.4-5,0c-1.4,0.4,0.9,0.7,0.3,0.2c-5-4.4-11.3-7.8-16.7-11.5c-28.2-19.4-56.4-38.9-84.6-58.3
			c-33.9-23.4-67.7-46.7-101.6-70.1c-12.7-8.7-25.4-17.5-38-26.2c-4.1-2.9-8.3-5.7-12.4-8.6c-2.1-1.4-4.3-3.4-6.6-4.5
			c-0.3-0.1-0.6-0.4-0.9-0.6c0.4,0.7,0.8,1.4,1.2,2.2c-1.4-26.1,4.1-52,19-73.8c11.1-16.2,26.5-29.1,43.6-38.7
			c10.1-5.7,20.9-10.4,32.1-13.5c0.2,0,2.3-0.5,2.3-0.6c-0.3,2.9-2.6-1.7-1.2,0.2c1.4,1.9,4.7,3.4,6.6,4.8
			c25.3,18.6,50.7,37.3,76,55.9c34.3,25.2,68.6,50.4,102.9,75.7c13.2,9.7,26.4,19.4,39.6,29.1c6.6,4.8,13,10.3,19.9,14.6
			c0.3,0.2,0.6,0.4,0.9,0.6C413.3,303.6,415.8,299.2,413.2,297.3z"/>
		<path fill="#8E8C7E" d="M54,456.9c-3.8,0.6-5.2,4-4.8,7.5c0.5,5.1,4.2,8.5,8.6,10.9c10.9,5.8,24.1,3.8,35.1-0.5
			c24.3-9.4,47.7-29.3,57.3-53.9c5.8-14.8,6.6-31.5,0.7-46.3c-0.5-1.3-1.6-2.1-3.1-1.7c-9.5,2.3-14.6,10.9-18.2,19.3
			c-5.2,12-10.2,24-15.7,35.9c-11.5,24.5-24.3,48.4-38.3,71.6c1.5,0.6,3,1.3,4.6,1.9c4.1-10.7,24.8-31.8,33.5-14.9
			c2.7,5.2,4.3,10.6,8.2,15.1c4,4.7,9.3,8.1,15,10.3c13.6,5.2,28.4,2.7,41.5-2.7c9.8-4.1,26-11.5,23.8-24.7
			c-0.7-4.6-3.8-9.2-8.5-10.4c-6.4-1.7-7.8,4.8-9.7,9.7c-4.8,12.2-9.1,29.6-3.5,42.2c5.1,11.5,18.5,13.7,29.7,12.2
			c12.3-1.7,24.4-7,34.6-13.9c23.5-15.9,46.1-48.8,36.9-78.4c-0.4-1.2-1.8-2.2-3.1-1.7c-15.7,5.9-21.8,24.3-27.1,38.7
			c-6.9,18.6-11.4,38.7-8.3,58.6c1,6.3,2.8,15.6,10.8,16c3.8,0.2,7.3-2,10.6-3.6c4-2.1,7.9-4.3,11.7-6.7
			c14.2-8.8,27.2-19.7,37.6-32.9c11.3-14.4,18.8-31.2,20.4-49.5c0.1-1.1-0.9-2.1-1.8-2.4c-5.9-2.1-10.7,2.4-13.6,7.2
			c-4.2,6.9-7.1,15.1-9.3,22.8c-4.1,14.2-6.9,31.3-2.4,45.8c4.1,13.3,15.7,21.1,29.6,19.8c14.7-1.4,25.8-11.6,34.3-22.9
			c8.8-11.7,19.7-29,10.3-43.4c-1-1.5-3.4-1.7-4.3,0c-5.5,10.5-11.6,22.7-7.4,34.8c3,8.6,11.4,16,21,13.7c9-2.2,14.8-11.9,14.9-20.8
			c0.1-12.1-9-22.1-18-29c-0.8,1.4-1.6,2.8-2.4,4.2c20.9,6.9,44.3,1.9,61.5-11.5c8.3-6.4,15.4-15,19.2-24.9
			c1.8-4.6,2.6-10.3-0.9-14.3c-2.9-3.3-7.5-4.4-11.2-2c-2.7,1.7-0.2,6.1,2.5,4.3c4-2.6,6.3,2.8,6,6c-0.2,2.6-1.4,5.1-2.5,7.4
			c-1.9,3.8-4.3,7.4-7,10.6c-5.2,6.2-11.6,11.2-18.8,15c-14.6,7.7-31.8,9.6-47.5,4.4c-2.3-0.7-4.4,2.6-2.4,4.2
			c6.8,5.3,13.7,11.9,15.9,20.6c1.9,7.7-1.4,17.8-9.5,20.5c-8.6,2.9-15.5-5.5-17-13.1c-1.9-9.7,3.4-19.4,7.8-27.7
			c-1.4,0-2.9,0-4.3,0c9,13.8-4.7,31.9-13.5,42.3c-9.4,11.1-24.8,21.4-39.8,14.7c-14.1-6.3-14.5-24.5-13.3-37.6
			c0.8-8.8,2.8-17.5,5.7-25.8c1.7-4.9,7.2-23.2,14.9-20.5c-0.6-0.8-1.2-1.6-1.8-2.4c-2.6,28.9-21.2,53-43.7,69.9
			c-5.4,4.1-11.1,7.8-17,11.2c-3,1.7-6.1,3.4-9.2,4.9c-2.9,1.4-6.7,2.3-8.7-0.9c-1.2-1.8-1.6-4.2-2-6.3c-3.5-17-0.5-34.5,4.7-50.8
			c2.8-8.8,6.1-17.6,10.1-25.9c3.6-7.4,8.3-14.9,16.4-17.9c-1-0.6-2.1-1.2-3.1-1.7c5.2,16.6-1.7,34.9-11,48.9
			c-8.4,12.6-20.2,23-33.8,29.8c-11.6,5.8-31.8,13.1-43.3,3.3c-6.7-5.8-6.1-16-5.2-24c1.2-9.6,4.2-18.9,8.6-27.5
			c-0.7,0.4-1.4,0.8-2.2,1.2c4.2-0.4,7,3.3,7.3,7.2c0.3,4.2-2.6,7.7-5.7,10.2c-6.4,5.3-15.2,8.8-23,11.1c-15.1,4.5-33.6,3.2-44-10.1
			c-6.5-8.4-7.6-24.5-21.9-21.8c-12.7,2.4-23,13-27.4,24.7c-1,2.7,3.1,4.3,4.6,1.9c13-21.6,25-43.8,35.9-66.5
			c5.2-10.9,10.1-21.9,14.8-33c3.8-9.1,7.6-22.3,18.6-25c-1-0.6-2.1-1.2-3.1-1.7c11.2,28.1-3.2,57.4-24.9,75.8
			c-10.2,8.7-22.4,16.5-35.4,20.2c-6.1,1.7-12.6,2.6-18.9,1.4c-3-0.6-5.9-1.7-8.5-3.4c-1-0.7-7.6-7.4-3.1-8.1
			C58.5,461.2,57.2,456.4,54,456.9L54,456.9z"/>
		<path fill="#8E8C7E" d="M70.3,203.6c31.6,21.6,63.2,43.3,94.9,64.9c50,34.2,99.9,68.4,149.9,102.6c11.4,7.8,22.8,15.6,34.1,23.4
			c1.2,0.8,2.7,0.2,3.4-0.9c6.4-9.7,12.8-19.3,19.2-29c0.8-1.2,0.2-2.7-0.9-3.4c-9.3-6.5-18.7-13-28-19.5
			c-22.3-15.5-44.6-31-66.9-46.5c-27.1-18.8-54.2-37.7-81.3-56.5c-23.3-16.2-46.7-32.4-70-48.7c-7.8-5.4-15.5-10.8-23.3-16.2
			c-3.5-2.4-7.1-5.8-11-7.6c-0.2-0.1-0.3-0.2-0.5-0.3c-1.2-0.8-2.7-0.1-3.4,0.9c-7.7,10-14.3,21.7-17.4,34c-0.8,3.1,4,4.5,4.8,1.3
			c3-11.9,9.5-23.1,16.9-32.8c-1.1,0.3-2.3,0.6-3.4,0.9c9.3,6.5,18.7,13,28,19.5c22.3,15.5,44.6,31,66.9,46.5
			c27.1,18.8,54.2,37.7,81.3,56.5c23.3,16.2,46.7,32.4,70,48.7c7.8,5.4,15.5,10.8,23.3,16.2c2.4,1.7,4.8,3.3,7.2,5
			c1.1,0.7,2.5,2.3,3.8,2.6c0.2,0,0.3,0.2,0.5,0.3c-0.3-1.1-0.6-2.3-0.9-3.4c-6.4,9.7-12.8,19.3-19.2,29c1.1-0.3,2.3-0.6,3.4-0.9
			c-31.6-21.6-63.2-43.3-94.9-64.9C206.9,291,157,256.8,107,222.6c-11.4-7.8-22.8-15.6-34.1-23.4C70.2,197.4,67.7,201.8,70.3,203.6z
			"/>
		<path fill="#8E8C7E" d="M118.9,141c30.7,21.5,61.5,43,92.2,64.4c48.9,34.2,97.8,68.3,146.7,102.5c11.1,7.8,22.2,15.5,33.3,23.3
			c1.2,0.8,2.7,0.2,3.4-0.9c3.4-5.2,6.8-10.3,10.2-15.5c0.8-1.2,0.1-2.7-0.9-3.4c-28.7-21.3-57.4-42.6-86.1-63.9
			c-45.8-34-91.5-67.9-137.3-101.9c-10.5-7.8-21.1-15.7-31.6-23.5c-0.7-0.6-1.8-0.4-2.5,0c-9.3,4.4-19.1,8.7-27.5,14.6
			c-2.6,1.8-0.1,6.2,2.5,4.3c8.5-5.9,18.2-10.2,27.5-14.6c-0.8,0-1.7,0-2.5,0c28.7,21.3,57.4,42.6,86.1,63.9
			c45.8,34,91.5,67.9,137.3,101.9c10.5,7.8,21.1,15.7,31.6,23.5c-0.3-1.1-0.6-2.3-0.9-3.4c-3.4,5.2-6.8,10.3-10.2,15.5
			c1.1-0.3,2.3-0.6,3.4-0.9c-30.7-21.5-61.5-43-92.2-64.4c-48.9-34.2-97.8-68.3-146.7-102.5c-11.1-7.8-22.2-15.5-33.3-23.3
			C118.8,134.8,116.3,139.1,118.9,141z"/>
		<path fill="#8E8C7E" d="M427.2,274.5c13.1-4.7,26.3-9.4,39.4-14c5.9-2.1,11.8-4.1,17.7-6.3c7.9-3,12.2-10.5,9.7-18.8
			c-3.3-10.8-7.6-21.3-11.4-31.9c-6.1-17.2-12.3-34.5-18.4-51.7c-3.3-9.3-6-25.7-17.1-28.4c-5.5-1.3-11.1,1.5-16.2,3.3
			c-8.3,3-16.6,5.9-24.9,8.9c-7.2,2.6-14.4,5.1-21.6,7.7c-6.8,2.4-12.9,6.6-12.9,14.8c0,3.8,1.8,7.6,3.1,11.1
			c2.3,6.4,4.6,12.8,6.8,19.2c6.2,17.4,12.4,34.8,18.6,52.2c2.3,6.4,4.5,12.7,6.8,19.1c1.3,3.7,2.4,7.9,5.1,10.9
			C415.9,274.9,421.7,276.1,427.2,274.5c3.1-0.9,1.8-5.7-1.3-4.8c-7.7,2.2-11.4-3.1-13.5-9.2c-1.9-5.2-3.7-10.5-5.6-15.7
			c-5.6-15.8-11.2-31.5-16.8-47.3c-4.1-11.5-8.3-23-12.3-34.5c-2.1-5.9-0.5-11.6,5.8-14.1c5.2-2.1,10.6-3.8,15.9-5.6
			c13.4-4.8,26.8-9.8,40.3-14.4c12.6-4.2,15.1,11,18.2,19.6c10,28.2,20.1,56.4,30.1,84.5c2,5.7,3.5,12.3-3.5,15.8
			c-3.8,1.9-8.2,2.9-12.1,4.4c-14.4,5.1-28.7,10.2-43.1,15.3c-1.1,0.4-2.2,0.8-3.3,1.2C422.9,270.7,424.2,275.6,427.2,274.5z"/>
		<path fill="#8E8C7E" d="M382,342.8c14.6,22.2,29.1,44.3,43.7,66.5c1.8,2.7,5.6,0.4,4.3-2.5c-5.4-12.1-10.8-24.2-16.2-36.3
			c-4-8.9-8-17.9-12-26.8c-2.2-5-4-10.6-6.8-15.3c-1.9-3.2-6.7-5.4-9.8-7.5c-9.3-6.5-18.6-13-27.9-19.5
			c-30-20.9-59.9-41.9-89.9-62.8c-31.6-22-63.1-44.1-94.7-66.1c-11.3-7.9-22.6-15.8-33.8-23.6c-5.5-3.8-10.9-8.4-16.7-11.7
			c-0.3-0.1-0.5-0.3-0.7-0.5c-0.7-0.5-1.8-0.5-2.5,0c-3.5,2.4-6.9,4.8-10.2,7.5c-1.4,1.2-3,2.1-2.5,4.2c0.4,1.4,1.9,2.5,2.9,3.4
			c5,4.4,10.6,8.4,16,12.4c20.9,15.5,42.3,30.5,63.6,45.4c27.6,19.4,55.4,38.6,83.1,57.8c24.6,17,49.2,33.9,73.8,50.8
			c8.3,5.7,16.6,11.4,24.9,17.1c3.8,2.6,7.7,6.1,11.8,8.1c0.2,0.1,0.4,0.2,0.5,0.4c2.7,1.8,5.2-2.5,2.5-4.3
			c-9.5-6.5-19-13-28.4-19.5c-22.5-15.4-45-30.9-67.5-46.4c-27.1-18.7-54.2-37.5-81.3-56.4c-22.9-16-45.7-32-68.3-48.3
			c-7.2-5.2-14.4-10.4-21.4-15.8c-2-1.5-4-3.1-5.9-4.8c-0.5-0.4-1.1-1.2-1.6-1.5c-0.8-0.4,0.1-0.1-0.1-0.1c0.3-0.1-1,2.2-0.1,2.2
			c1.4,0,5.4-4.2,6.8-5.1c1.3-0.9,2.5-1.8,3.8-2.7c-0.8,0-1.7,0-2.5,0c13.7,9.6,27.4,19.2,41.2,28.8c30.4,21.3,60.9,42.5,91.3,63.8
			c31.1,21.7,62.3,43.5,93.4,65.2c15.4,10.7,31.2,21,46.2,32.3c0.5,0.4-0.5-1.6-0.3,0c0.3,1.8,1.8,4.1,2.6,5.8
			c3.4,7.5,6.7,15.1,10.1,22.6c7,15.7,14,31.3,21,47c0.4,1,0.9,1.9,1.3,2.9c1.4-0.8,2.9-1.7,4.3-2.5c-14.6-22.2-29.1-44.3-43.7-66.5
			C384.5,337.6,380.2,340.1,382,342.8z"/>
	</g>
</g>
</svg>
