<?xml version="1.0" encoding="utf-8"?>
<!-- Generator: Adobe Illustrator 18.1.0, SVG Export Plug-In . SVG Version: 6.00 Build 0)  -->
<svg version="1.1" id="Layer_1" xmlns="http://www.w3.org/2000/svg" xmlns:xlink="http://www.w3.org/1999/xlink" x="0px" y="0px"
	 width="580px" height="650px" viewBox="0 0 580 650" enable-background="new 0 0 580 650" xml:space="preserve">
<g>
	<g>
		<path fill="#8E8C7E" d="M287.7,3c-19.2,11.1-38.4,22.3-57.7,33.4C191,59,152,81.6,113,104.2c-30.3,17.6-60.7,35.1-91,52.7
			c-3.2,1.9-10.9,4.5-11.5,8.6c-0.3,2.5,0,5.4,0,7.9c0,5.5,0,10.9,0,16.4c0,39.4,0,78.8,0,118.2c0,43.3,0,86.6,0,129.9
			c0,13,0,26,0,38.9c0,4.3-1.2,8.7,2.8,11.1c23.7,14.2,47.9,27.7,71.8,41.6c39.6,22.9,79.1,45.8,118.7,68.8
			c26.6,15.4,53.3,30.9,79.9,46.3c1.4,0.8,2.7,1.6,4.1,2.4c2.8,1.6,5.3-2.7,2.5-4.3c-31.1-18-62.2-36.1-93.4-54.1
			c-49.6-28.7-99.1-57.4-148.7-86.2c-11.3-6.6-22.7-13.1-34-19.7c0.4,0.7,0.8,1.4,1.2,2.2c0-36.3,0-72.5,0-108.8
			c0-57.3,0-114.6,0-171.9c0-13.1,0-26.1,0-39.2c-0.4,0.7-0.8,1.4-1.2,2.2c31.1-18,62.2-36.1,93.4-54.1
			c49.6-28.7,99.1-57.4,148.7-86.2c11.3-6.6,22.7-13.1,34-19.7C293,5.7,290.5,1.3,287.7,3L287.7,3z"/>
		<path fill="#8E8C7E" d="M287.7,7.3c31.3,18,62.6,36,93.9,54c49.9,28.7,99.8,57.4,149.7,86.1c11.5,6.6,22.9,13.2,34.4,19.8
			c-0.4-0.7-0.8-1.4-1.2-2.2c0,36.3,0,72.5,0,108.8c0,57.3,0,114.6,0,171.9c0,13.1,0,26.1,0,39.2c0.4-0.7,0.8-1.4,1.2-2.2
			c-31.3,18-62.6,36-93.9,54c-49.9,28.7-99.8,57.4-149.7,86.1c-11.5,6.6-22.9,13.2-34.4,19.8c-2.8,1.6-0.3,5.9,2.5,4.3
			c31.3-18,62.6-36,93.9-54c49.9-28.7,99.8-57.4,149.7-86.1c11.5-6.6,22.9-13.2,34.4-19.8c0.8-0.4,1.2-1.3,1.2-2.2
			c0-36.3,0-72.5,0-108.8c0-57.3,0-114.6,0-171.9c0-13.1,0-26.1,0-39.2c0-0.9-0.5-1.7-1.2-2.2c-31.3-18-62.6-36-93.9-54
			c-49.9-28.7-99.8-57.4-149.7-86.1C313.2,16.2,301.7,9.6,290.3,3C287.5,1.4,284.9,5.7,287.7,7.3L287.7,7.3z"/>
		<path fill="#8E8C7E" d="M289,533.7c43.3-0.1,85.9-13.5,121.1-38.7c34.1-24.4,60.5-58.9,74.9-98.3c30.2-82.5,4-177.7-64-233.2
			c-67.6-55.1-165.3-62.3-240-17c-36,21.8-65,54.5-82.3,92.8c-17.9,39.8-22.9,84.8-14.2,127.6c17.1,84.1,87.1,151.1,172,164.2
			C267.3,532.8,278.1,533.6,289,533.7c3.2,0,3.2-5,0-5c-84.9-0.3-162.9-54.5-191.7-134.6c-14.4-40.1-15.9-84.4-4.1-125.3
			c11.3-39.4,34.7-74.8,66.3-100.9c65.9-54.4,161.9-61.3,234.9-17.1c72.8,44.1,111.1,131.4,94.2,214.8
			c-16.7,82.1-84.4,147.2-167.1,160.5c-10.7,1.7-21.6,2.5-32.5,2.6C285.8,528.7,285.8,533.7,289,533.7z"/>
		<path fill="#8E8C7E" d="M289,507.6c75.9-0.3,145.3-48.5,171.5-119.9c26.5-72.1,3.5-155.6-56-204.1
			c-59.2-48.4-144.9-54.6-210.4-14.7C129.1,208.6,95,286.5,110,361.3c14.8,73.8,76.3,132.7,150.7,144.1
			C270.1,506.9,279.5,507.6,289,507.6c3.2,0,3.2-5,0-5c-73.8-0.3-141.7-47.2-166.9-116.8C96.6,315.7,118.6,235.5,176,188
			c57.5-47.7,141.5-53.6,205.3-14.8c63.4,38.6,96.6,114.7,81.8,187.4c-14.6,71.6-73.7,128.1-145.8,139.7c-9.4,1.5-18.8,2.2-28.3,2.2
			C285.8,502.6,285.8,507.6,289,507.6z"/>
		<path fill="#8E8C7E" d="M155.5,248.8c-6.3,50-6.4,100.6-0.1,150.6c0.2,1.2,1,2.6,2.5,2.5c21.8-2.1,43.6-4.2,65.4-6.3
			c3.2-0.3,3.2-5.3,0-5c-21.8,2.1-43.6,4.2-65.4,6.3c0.8,0.8,1.7,1.7,2.5,2.5c-6.3-50-6.2-100.6,0.1-150.6
			C161,245.6,155.9,245.6,155.5,248.8L155.5,248.8z"/>
		<path fill="#8E8C7E" d="M239,379.7c1.2,8.1,3.1,17.4,9.8,22.9c6.2,5.1,14.5,4.9,21.3,0.9c17.3-10.4,13.1-31.4,12.1-48.2
			c-1-17.2-0.3-34.5-1.2-51.6c-1.1-20.3-1.9-43.3-10.5-62.1c-2.5-5.6-6.6-11.5-13.1-12.5c-7.7-1.2-14.6,5-19.4,10.2
			c-13,14.2-6.3,35.8-4.6,52.8c2.8,29,1.8,58.2,5.7,87.1c0.4,3.1,5.4,3.2,5,0c-3.1-23-3.3-46.2-4.5-69.4c-0.5-8.9-1.1-17.8-2.3-26.7
			c-1.2-8.3-2.4-16.8-1.7-25.2c0.8-9.6,7.5-20.5,17.3-23.5c5.1-1.6,8.8,1.6,11.3,5.8c4,6.6,5.9,14.6,7.4,22.1c2,9.9,3,20,3.8,30
			c1.4,18.1,1.6,36.2,1.8,54.3c0.1,10.6,2.3,21.3,1.6,31.9c-0.7,10.3-7.3,24-19.7,23.2c-11.2-0.7-13.8-14.4-15.1-23.2
			C243.4,375.2,238.6,376.5,239,379.7z"/>
		<path fill="#8E8C7E" d="M355.5,250.2c1.6-9.7-4-18.4-12.7-22.5c-9-4.3-19-2.3-26.7,3.7c-21.4,16.8-15.5,47.7-13.3,71.1
			c1.4,15.1,2.8,30.2,4.2,45.4c0.7,7.2,1.3,14.5,2,21.7c0.6,6.4,0.4,13.6,2.8,19.6c3.4,8.6,12.4,11.5,21,11.6
			c4.6,0,9.3-0.6,13.8-1.5c5.3-1.1,7.8-3.4,8.9-8.8c5.6-29.7,8.4-62.8-0.7-92.1c-0.7-2.2-3.3-2.3-4.6-0.6c-4,5.4-10.8,7.2-17.1,5.1
			c0.4,1.4,0.7,2.8,1.1,4.2c1.3-1.5,2.8-2.3,4.7-2.6c3.2-0.4,1.8-5.3-1.3-4.8c-2.9,0.4-5,1.6-6.9,3.8c-1.2,1.5-0.8,3.6,1.1,4.2
			c8.6,2.8,17.4-0.3,22.7-7.4c-1.5-0.2-3-0.4-4.6-0.6c6.7,21.5,6.2,44.1,3.8,66.3c-0.7,5.9-1.4,11.8-2.3,17.6c-0.3,2.2-0.2,5-1,7
			c-1.5,3.6-4.4,3.7-7.6,4.2c-7.5,1.3-18.2,2.4-23.9-3.8c-3.8-4.1-3.7-10.4-4.2-15.6c-0.6-5.9-1.1-11.8-1.7-17.8
			c-1.1-11.8-2.2-23.7-3.3-35.5c-1.1-11.8-2.2-23.6-3.3-35.4c-1-11.3-2-23.1,1.4-34.1c3-9.7,10.2-19.4,20.5-22
			c10.7-2.6,24.5,6,22.5,18C350.2,252,355,253.3,355.5,250.2L355.5,250.2z"/>
		<path fill="#8E8C7E" d="M420.2,241.1c-5.7-6.9-16.3-10.3-24.3-5.3c-9,5.7-10.1,18.5-11.5,28.1c-4,28.6-3,57.7,0.5,86.3
			c1.4,11.2,2,23.8,6.6,34.2c3.3,7.5,10.4,14.3,19.1,10.8c8.2-3.3,10.9-13.4,12.5-21.3c2.8-14.1,4.7-28.4,5.8-42.7
			c1.2-16,1.2-32.2,0.2-48.2c-0.5-7.8-1.3-15.6-2.3-23.3c-0.9-6.4-2.4-12.7-6.2-18.1c-1.8-2.6-6.2-0.1-4.3,2.5
			c6.2,8.8,6.4,20.9,7.3,31.2c1,11.9,1.5,23.8,1.3,35.7c-0.2,11.6-0.9,23.1-2.3,34.7c-1.3,11-2.5,22.6-5.7,33.2
			c-1.1,3.6-2.7,7.8-5.8,10.3c-4.6,3.7-9.8,1.6-12.9-2.8c-5.3-7.6-5.8-18.4-7.1-27.3c-3.4-23.3-5.2-47-4-70.6
			c0.6-12.4,1.4-25.4,4.7-37.4c1.5-5.5,4.4-11.4,10.6-12.5c5.6-1,10.8,1.8,14.3,6C418.7,247.1,422.3,243.5,420.2,241.1z"/>
	</g>
</g>
</svg>
